<?xml version="1.0" encoding="UTF-8"?>
<svg width="16" height="16" version="1.1" viewBox="0 0 16 16" xml:space="preserve" xmlns="http://www.w3.org/2000/svg" xmlns:xlink="http://www.w3.org/1999/xlink"><defs><linearGradient id="a" x1="8" x2="16" y1="7.5" gradientUnits="userSpaceOnUse" spreadMethod="reflect"><stop stop-color="#0081ff" offset="0"/><stop stop-color="#fff" offset="1"/></linearGradient></defs><path d="m8 0.5c-2.1444 0.64104-4.6862 1.1245-7.5 1.5 0.16081 3.0565 0.12598 6.1455 1.5 9 1.1228 1.246 1.9371 2.4027 6 4.5 4.0629-2.0973 4.8772-3.254 6-4.5 1.374-2.8545 1.3392-5.9435 1.5-9-2.8138-0.37554-5.3556-0.85896-7.5-1.5z" fill="url(#a)" stroke="#000" stroke-linecap="round" stroke-linejoin="round"/><g aria-label="S"><path d="m8.018 11.64q-0.84 0-1.512-0.204-0.672-0.216-1.284-0.744-0.156-0.132-0.24-0.3t-0.084-0.336q0-0.276 0.192-0.48 0.204-0.216 0.504-0.216 0.228 0 0.408 0.144 0.456 0.372 0.9 0.564 0.456 0.192 1.116 0.192 0.444 0 0.816-0.132 0.372-0.144 0.6-0.372 0.228-0.24 0.228-0.54 0-0.36-0.216-0.612t-0.66-0.42q-0.444-0.18-1.128-0.276-0.648-0.096-1.14-0.288-0.492-0.204-0.828-0.504-0.324-0.312-0.492-0.72-0.168-0.42-0.168-0.936 0-0.78 0.396-1.332 0.408-0.552 1.092-0.84t1.512-0.288q0.78 0 1.44 0.24 0.672 0.228 1.092 0.588 0.348 0.276 0.348 0.636 0 0.264-0.204 0.48t-0.48 0.216q-0.18 0-0.324-0.108-0.192-0.168-0.516-0.312-0.324-0.156-0.684-0.252-0.36-0.108-0.672-0.108-0.516 0-0.876 0.132-0.348 0.132-0.528 0.36t-0.18 0.528q0 0.36 0.204 0.6 0.216 0.228 0.612 0.372 0.396 0.132 0.948 0.24 0.72 0.132 1.26 0.312 0.552 0.18 0.912 0.468 0.36 0.276 0.54 0.708 0.18 0.42 0.18 1.032 0 0.78-0.432 1.344-0.432 0.564-1.14 0.864-0.696 0.3-1.512 0.3z"/></g></svg>
